<?xml version="1.0" standalone="no"?>
<!DOCTYPE svg PUBLIC "-//W3C//DTD SVG 20010904//EN"
 "http://www.w3.org/TR/2001/REC-SVG-20010904/DTD/svg10.dtd">
<svg version="1.0" xmlns="http://www.w3.org/2000/svg"
 width="500.000000pt" height="500.000000pt" viewBox="0 0 500.000000 500.000000"
 preserveAspectRatio="xMidYMid meet">

<g transform="translate(0.000000,500.000000) scale(0.100000,-0.100000)"
fill="#000000" stroke="none">
<path d="M0 2500 l0 -2500 2500 0 2500 0 0 2500 0 2500 -2500 0 -2500 0 0
-2500z m3480 0 l0 -980 -980 0 -980 0 0 980 0 980 980 0 980 0 0 -980z"/>
<path d="M1580 2500 l0 -920 920 0 920 0 0 920 0 920 -920 0 -920 0 0 -920z
m328 818 c-3 -7 -19 -14 -37 -16 l-32 -3 3 -367 c3 -363 3 -367 27 -412 138
-264 513 -227 586 58 12 48 15 120 13 388 l-3 329 -32 3 c-21 2 -33 9 -33 18
0 11 17 14 80 14 63 0 80 -3 80 -14 0 -9 -12 -16 -32 -18 l-33 -3 -5 -370 c-5
-366 -5 -371 -29 -418 -13 -27 -46 -71 -72 -98 -174 -179 -478 -115 -570 119
-22 55 -23 72 -27 415 l-4 357 -29 0 c-19 0 -29 5 -29 15 0 12 17 15 91 15 68
0 90 -3 87 -12z m949 -380 l33 -32 34 33 c20 19 39 30 46 26 13 -8 -8 -35 -53
-67 l-29 -20 -39 38 c-37 36 -48 54 -32 54 4 0 22 -14 40 -32z m189 -232 c76
-35 124 -72 124 -97 0 -28 -22 -23 -56 12 -75 80 -227 112 -348 74 -61 -19
-137 -78 -161 -126 -22 -42 -19 -117 8 -164 37 -66 89 -96 263 -154 202 -68
255 -94 305 -148 52 -57 69 -99 69 -170 0 -46 -6 -69 -30 -110 -90 -156 -347
-216 -538 -126 -99 47 -193 163 -132 163 11 0 26 -12 34 -29 28 -53 104 -110
179 -133 292 -88 551 169 368 365 -37 40 -77 59 -271 126 -214 75 -264 107
-306 196 -67 142 23 285 216 341 73 22 206 12 276 -20z"/>
</g>
</svg>
